<svg xmlns="http://www.w3.org/2000/svg" width="1024" height="1024" viewBox="0 0 1024 1024">
  <defs>
    <radialGradient id="bg" cx="50%" cy="42%" r="75%">
      <stop offset="0%" stop-color="#241a16"/><stop offset="55%" stop-color="#120d0c"/><stop offset="100%" stop-color="#0a0707"/>
    </radialGradient>
    <linearGradient id="ink" x1="0" y1="0" x2="0" y2="1">
      <stop offset="0%" stop-color="#f2ead9"/><stop offset="100%" stop-color="#d8cdb8"/>
    </linearGradient>
  </defs>
  <rect width="1024" height="1024" fill="url(#bg)"/>
  <!-- scanlines discrètes -->
  <g opacity="0.06" fill="#9ad1d4"><rect x="0" y="0" width="1024" height="2"/><rect x="0" y="32" width="1024" height="2"/><rect x="0" y="64" width="1024" height="2"/><rect x="0" y="96" width="1024" height="2"/><rect x="0" y="128" width="1024" height="2"/><rect x="0" y="160" width="1024" height="2"/><rect x="0" y="192" width="1024" height="2"/><rect x="0" y="224" width="1024" height="2"/><rect x="0" y="256" width="1024" height="2"/><rect x="0" y="288" width="1024" height="2"/><rect x="0" y="320" width="1024" height="2"/><rect x="0" y="352" width="1024" height="2"/><rect x="0" y="384" width="1024" height="2"/><rect x="0" y="416" width="1024" height="2"/><rect x="0" y="448" width="1024" height="2"/><rect x="0" y="480" width="1024" height="2"/><rect x="0" y="512" width="1024" height="2"/><rect x="0" y="544" width="1024" height="2"/><rect x="0" y="576" width="1024" height="2"/><rect x="0" y="608" width="1024" height="2"/><rect x="0" y="640" width="1024" height="2"/><rect x="0" y="672" width="1024" height="2"/><rect x="0" y="704" width="1024" height="2"/><rect x="0" y="736" width="1024" height="2"/><rect x="0" y="768" width="1024" height="2"/><rect x="0" y="800" width="1024" height="2"/><rect x="0" y="832" width="1024" height="2"/><rect x="0" y="864" width="1024" height="2"/><rect x="0" y="896" width="1024" height="2"/><rect x="0" y="928" width="1024" height="2"/><rect x="0" y="960" width="1024" height="2"/><rect x="0" y="992" width="1024" height="2"/></g>
  <!-- omega OMNICORP en filigrane -->
  <text x="512" y="660" font-family="FreeSans, DejaVu Sans, sans-serif" font-size="620" font-weight="bold" fill="#a8281e" opacity="0.10" text-anchor="middle">&#937;</text>
  <!-- cadre -->
  <rect x="40" y="40" width="944" height="944" rx="150" fill="none" stroke="#a8281e" stroke-opacity="0.35" stroke-width="8"/>
  <!-- AGI : ombre rouge décalée + lettres claires -->
  <text x="528" y="600" font-family="FreeSans, DejaVu Sans, sans-serif" font-size="370" font-weight="bold" fill="#a8281e" text-anchor="middle" letter-spacing="-6">AGI</text>
  <text x="512" y="584" font-family="FreeSans, DejaVu Sans, sans-serif" font-size="370" font-weight="bold" fill="url(#ink)" text-anchor="middle" letter-spacing="-6">AGI</text>
  <!-- filet + accroche -->
  <rect x="312" y="676" width="400" height="6" fill="#a8281e"/>
  <text x="512" y="752" font-family="FreeSans, DejaVu Sans, sans-serif" font-size="58" font-weight="bold" fill="#b89a7a" text-anchor="middle" letter-spacing="8">GUERRE DES ÈRES</text>
</svg>